# xmcd
#
# Track frame offsets: 
#        150
#        17782
#        41039
#        56684
#        76948
#        94065
#        110276
#        131829
#        144621
#        161512
#        176814
#
# Disc length: 2597 seconds
#
# Revision: 1
# Processed by: cddbd v1.5.2PL0 Copyright (c) Steve Scherf et al.
# Submitted via: ExactAudioCopy v0.99pb3
#
DISCID=930a230b
DTITLE=Ana Popovic - Comfort To The Soul
DYEAR=2003
DGENRE=Rock
TTITLE0=Don't Bear Down On Me (I'm Here To Steal The Show)
TTITLE1=Love Me Again
TTITLE2=Comfort To The Soul
TTITLE3=Change My Mind
TTITLE4=Sittin' On Top Of The World
TTITLE5=Night By Night
TTITLE6=Navajo Moon
TTITLE7=Need All The Help I Can Get
TTITLE8=Recall The Days
TTITLE9=Fool Proof
TTITLE10=Jaco
EXTD=
EXTT0=
EXTT1=
EXTT2=
EXTT3=
EXTT4=
EXTT5=
EXTT6=
EXTT7=
EXTT8=
EXTT9=
EXTT10=
PLAYORDER=
